<mxfile host="app.diagrams.net" agent="Mozilla/5.0 (Windows NT 10.0; Win64; x64) AppleWebKit/537.36 (KHTML, like Gecko) Chrome/137.0.0.0 Safari/537.36 Edg/137.0.0.0" version="27.1.5">
  <diagram name="Página-1" id="DkEYeT9VfwZDsQ3w5HZB">
    <mxGraphModel grid="1" page="1" gridSize="10" guides="1" tooltips="1" connect="1" arrows="1" fold="1" pageScale="1" pageWidth="1169" pageHeight="827" math="0" shadow="0">
      <root>
        <mxCell id="0" />
        <mxCell id="1" parent="0" />
        <mxCell id="lqUhzo9xt43_t8J0r6sr-1" value="&lt;b&gt;Selecionar Viagem&lt;/b&gt;" style="shape=umlFrame;whiteSpace=wrap;html=1;pointerEvents=0;width=110;height=30;strokeWidth=2;" vertex="1" parent="1">
          <mxGeometry x="250" y="70" width="430" height="840" as="geometry" />
        </mxCell>
        <mxCell id="FR1wxd3oKYAFWQSkfWps-1" value="&lt;b&gt;Sistema&lt;/b&gt;" style="shape=umlLifeline;perimeter=lifelinePerimeter;whiteSpace=wrap;html=1;container=1;dropTarget=0;collapsible=0;recursiveResize=0;outlineConnect=0;portConstraint=eastwest;newEdgeStyle={&quot;curved&quot;:0,&quot;rounded&quot;:0};strokeWidth=2;" vertex="1" parent="1">
          <mxGeometry x="510" y="130" width="100" height="770" as="geometry" />
        </mxCell>
        <mxCell id="4I5Ba4hPfbXp_XHa29CI-5" value="" style="html=1;points=[[0,0,0,0,5],[0,1,0,0,-5],[1,0,0,0,5],[1,1,0,0,-5]];perimeter=orthogonalPerimeter;outlineConnect=0;targetShapes=umlLifeline;portConstraint=eastwest;newEdgeStyle={&quot;curved&quot;:0,&quot;rounded&quot;:0};" vertex="1" parent="FR1wxd3oKYAFWQSkfWps-1">
          <mxGeometry x="45" y="100" width="10" height="90" as="geometry" />
        </mxCell>
        <mxCell id="4I5Ba4hPfbXp_XHa29CI-8" value="" style="html=1;points=[[0,0,0,0,5],[0,1,0,0,-5],[1,0,0,0,5],[1,1,0,0,-5]];perimeter=orthogonalPerimeter;outlineConnect=0;targetShapes=umlLifeline;portConstraint=eastwest;newEdgeStyle={&quot;curved&quot;:0,&quot;rounded&quot;:0};" vertex="1" parent="FR1wxd3oKYAFWQSkfWps-1">
          <mxGeometry x="45" y="229" width="10" height="71" as="geometry" />
        </mxCell>
        <mxCell id="4I5Ba4hPfbXp_XHa29CI-18" style="edgeStyle=orthogonalEdgeStyle;rounded=0;orthogonalLoop=1;jettySize=auto;html=1;curved=0;endArrow=block;endFill=1;" edge="1" parent="FR1wxd3oKYAFWQSkfWps-1" target="4I5Ba4hPfbXp_XHa29CI-20">
          <mxGeometry relative="1" as="geometry">
            <mxPoint x="55" y="249" as="sourcePoint" />
            <Array as="points">
              <mxPoint x="75" y="249" />
              <mxPoint x="75" y="272" />
            </Array>
          </mxGeometry>
        </mxCell>
        <mxCell id="4I5Ba4hPfbXp_XHa29CI-19" value="5: msgClasse" style="edgeLabel;html=1;align=center;verticalAlign=middle;resizable=0;points=[];" connectable="0" vertex="1" parent="4I5Ba4hPfbXp_XHa29CI-18">
          <mxGeometry x="0.0268" y="1" relative="1" as="geometry">
            <mxPoint x="34" as="offset" />
          </mxGeometry>
        </mxCell>
        <mxCell id="4I5Ba4hPfbXp_XHa29CI-20" value="" style="html=1;points=[[0,0,0,0,5],[0,1,0,0,-5],[1,0,0,0,5],[1,1,0,0,-5]];perimeter=orthogonalPerimeter;outlineConnect=0;targetShapes=umlLifeline;portConstraint=eastwest;newEdgeStyle={&quot;curved&quot;:0,&quot;rounded&quot;:0};" vertex="1" parent="FR1wxd3oKYAFWQSkfWps-1">
          <mxGeometry x="50" y="259" width="10" height="25" as="geometry" />
        </mxCell>
        <mxCell id="4I5Ba4hPfbXp_XHa29CI-25" value="" style="html=1;points=[[0,0,0,0,5],[0,1,0,0,-5],[1,0,0,0,5],[1,1,0,0,-5]];perimeter=orthogonalPerimeter;outlineConnect=0;targetShapes=umlLifeline;portConstraint=eastwest;newEdgeStyle={&quot;curved&quot;:0,&quot;rounded&quot;:0};" vertex="1" parent="FR1wxd3oKYAFWQSkfWps-1">
          <mxGeometry x="45" y="330" width="10" height="71" as="geometry" />
        </mxCell>
        <mxCell id="4I5Ba4hPfbXp_XHa29CI-28" style="edgeStyle=orthogonalEdgeStyle;rounded=0;orthogonalLoop=1;jettySize=auto;html=1;curved=0;endArrow=block;endFill=1;" edge="1" parent="FR1wxd3oKYAFWQSkfWps-1" target="4I5Ba4hPfbXp_XHa29CI-30">
          <mxGeometry relative="1" as="geometry">
            <mxPoint x="55" y="348" as="sourcePoint" />
            <Array as="points">
              <mxPoint x="75" y="348" />
              <mxPoint x="75" y="371" />
            </Array>
          </mxGeometry>
        </mxCell>
        <mxCell id="4I5Ba4hPfbXp_XHa29CI-29" value="8: msgAssento" style="edgeLabel;html=1;align=center;verticalAlign=middle;resizable=0;points=[];" connectable="0" vertex="1" parent="4I5Ba4hPfbXp_XHa29CI-28">
          <mxGeometry x="0.0268" y="1" relative="1" as="geometry">
            <mxPoint x="37" as="offset" />
          </mxGeometry>
        </mxCell>
        <mxCell id="4I5Ba4hPfbXp_XHa29CI-30" value="" style="html=1;points=[[0,0,0,0,5],[0,1,0,0,-5],[1,0,0,0,5],[1,1,0,0,-5]];perimeter=orthogonalPerimeter;outlineConnect=0;targetShapes=umlLifeline;portConstraint=eastwest;newEdgeStyle={&quot;curved&quot;:0,&quot;rounded&quot;:0};" vertex="1" parent="FR1wxd3oKYAFWQSkfWps-1">
          <mxGeometry x="50" y="358" width="10" height="25" as="geometry" />
        </mxCell>
        <mxCell id="tIPdcqpkB73JDoqI9Y_N-24" value="" style="html=1;points=[[0,0,0,0,5],[0,1,0,0,-5],[1,0,0,0,5],[1,1,0,0,-5]];perimeter=orthogonalPerimeter;outlineConnect=0;targetShapes=umlLifeline;portConstraint=eastwest;newEdgeStyle={&quot;curved&quot;:0,&quot;rounded&quot;:0};" vertex="1" parent="FR1wxd3oKYAFWQSkfWps-1">
          <mxGeometry x="45" y="420" width="10" height="61" as="geometry" />
        </mxCell>
        <mxCell id="tIPdcqpkB73JDoqI9Y_N-25" value="" style="html=1;points=[[0,0,0,0,5],[0,1,0,0,-5],[1,0,0,0,5],[1,1,0,0,-5]];perimeter=orthogonalPerimeter;outlineConnect=0;targetShapes=umlLifeline;portConstraint=eastwest;newEdgeStyle={&quot;curved&quot;:0,&quot;rounded&quot;:0};" vertex="1" parent="FR1wxd3oKYAFWQSkfWps-1">
          <mxGeometry x="50" y="438" width="10" height="25" as="geometry" />
        </mxCell>
        <mxCell id="tIPdcqpkB73JDoqI9Y_N-26" style="edgeStyle=orthogonalEdgeStyle;rounded=0;orthogonalLoop=1;jettySize=auto;html=1;curved=0;endArrow=block;endFill=1;" edge="1" parent="FR1wxd3oKYAFWQSkfWps-1">
          <mxGeometry relative="1" as="geometry">
            <mxPoint x="55" y="430" as="sourcePoint" />
            <Array as="points">
              <mxPoint x="70" y="430" />
              <mxPoint x="70" y="453" />
            </Array>
            <mxPoint x="55" y="453" as="targetPoint" />
          </mxGeometry>
        </mxCell>
        <mxCell id="tIPdcqpkB73JDoqI9Y_N-27" value="11:&amp;nbsp;msgDespacho" style="edgeLabel;html=1;align=center;verticalAlign=middle;resizable=0;points=[];" connectable="0" vertex="1" parent="tIPdcqpkB73JDoqI9Y_N-26">
          <mxGeometry x="0.0268" y="1" relative="1" as="geometry">
            <mxPoint x="49" y="-2" as="offset" />
          </mxGeometry>
        </mxCell>
        <mxCell id="tIPdcqpkB73JDoqI9Y_N-34" value="" style="html=1;points=[[0,0,0,0,5],[0,1,0,0,-5],[1,0,0,0,5],[1,1,0,0,-5]];perimeter=orthogonalPerimeter;outlineConnect=0;targetShapes=umlLifeline;portConstraint=eastwest;newEdgeStyle={&quot;curved&quot;:0,&quot;rounded&quot;:0};" vertex="1" parent="FR1wxd3oKYAFWQSkfWps-1">
          <mxGeometry x="45" y="500" width="10" height="61" as="geometry" />
        </mxCell>
        <mxCell id="tIPdcqpkB73JDoqI9Y_N-38" value="" style="html=1;points=[[0,0,0,0,5],[0,1,0,0,-5],[1,0,0,0,5],[1,1,0,0,-5]];perimeter=orthogonalPerimeter;outlineConnect=0;targetShapes=umlLifeline;portConstraint=eastwest;newEdgeStyle={&quot;curved&quot;:0,&quot;rounded&quot;:0};" vertex="1" parent="FR1wxd3oKYAFWQSkfWps-1">
          <mxGeometry x="50" y="518" width="10" height="25" as="geometry" />
        </mxCell>
        <mxCell id="tIPdcqpkB73JDoqI9Y_N-39" style="edgeStyle=orthogonalEdgeStyle;rounded=0;orthogonalLoop=1;jettySize=auto;html=1;curved=0;endArrow=block;endFill=1;" edge="1" parent="FR1wxd3oKYAFWQSkfWps-1">
          <mxGeometry relative="1" as="geometry">
            <mxPoint x="55" y="510" as="sourcePoint" />
            <Array as="points">
              <mxPoint x="70" y="510" />
              <mxPoint x="70" y="533" />
            </Array>
            <mxPoint x="55" y="533" as="targetPoint" />
          </mxGeometry>
        </mxCell>
        <mxCell id="tIPdcqpkB73JDoqI9Y_N-40" value="14:msgFormulário" style="edgeLabel;html=1;align=center;verticalAlign=middle;resizable=0;points=[];" connectable="0" vertex="1" parent="tIPdcqpkB73JDoqI9Y_N-39">
          <mxGeometry x="0.0268" y="1" relative="1" as="geometry">
            <mxPoint x="46" as="offset" />
          </mxGeometry>
        </mxCell>
        <mxCell id="tIPdcqpkB73JDoqI9Y_N-43" style="edgeStyle=orthogonalEdgeStyle;rounded=0;orthogonalLoop=1;jettySize=auto;html=1;curved=0;exitX=0;exitY=0;exitDx=0;exitDy=5;exitPerimeter=0;endArrow=block;endFill=1;entryX=0;entryY=0;entryDx=0;entryDy=5;entryPerimeter=0;" edge="1" parent="FR1wxd3oKYAFWQSkfWps-1">
          <mxGeometry relative="1" as="geometry">
            <mxPoint x="-130" y="620.2222222222222" as="sourcePoint" />
            <mxPoint x="45" y="620" as="targetPoint" />
          </mxGeometry>
        </mxCell>
        <mxCell id="tIPdcqpkB73JDoqI9Y_N-44" value="15:fimCancelamento&amp;nbsp;" style="edgeLabel;html=1;align=center;verticalAlign=middle;resizable=0;points=[];" connectable="0" vertex="1" parent="tIPdcqpkB73JDoqI9Y_N-43">
          <mxGeometry x="-0.0312" y="-2" relative="1" as="geometry">
            <mxPoint y="-11" as="offset" />
          </mxGeometry>
        </mxCell>
        <mxCell id="tIPdcqpkB73JDoqI9Y_N-53" value="17: msgCancelamento" style="edgeLabel;html=1;align=center;verticalAlign=middle;resizable=0;points=[];" connectable="0" vertex="1" parent="tIPdcqpkB73JDoqI9Y_N-43">
          <mxGeometry x="-0.0312" y="-2" relative="1" as="geometry">
            <mxPoint x="6" y="37" as="offset" />
          </mxGeometry>
        </mxCell>
        <mxCell id="tIPdcqpkB73JDoqI9Y_N-47" value="" style="html=1;points=[[0,0,0,0,5],[0,1,0,0,-5],[1,0,0,0,5],[1,1,0,0,-5]];perimeter=orthogonalPerimeter;outlineConnect=0;targetShapes=umlLifeline;portConstraint=eastwest;newEdgeStyle={&quot;curved&quot;:0,&quot;rounded&quot;:0};" vertex="1" parent="FR1wxd3oKYAFWQSkfWps-1">
          <mxGeometry x="45" y="610" width="10" height="61" as="geometry" />
        </mxCell>
        <mxCell id="tIPdcqpkB73JDoqI9Y_N-48" value="" style="html=1;points=[[0,0,0,0,5],[0,1,0,0,-5],[1,0,0,0,5],[1,1,0,0,-5]];perimeter=orthogonalPerimeter;outlineConnect=0;targetShapes=umlLifeline;portConstraint=eastwest;newEdgeStyle={&quot;curved&quot;:0,&quot;rounded&quot;:0};" vertex="1" parent="FR1wxd3oKYAFWQSkfWps-1">
          <mxGeometry x="50" y="628" width="10" height="25" as="geometry" />
        </mxCell>
        <mxCell id="tIPdcqpkB73JDoqI9Y_N-49" style="edgeStyle=orthogonalEdgeStyle;rounded=0;orthogonalLoop=1;jettySize=auto;html=1;curved=0;endArrow=block;endFill=1;" edge="1" parent="FR1wxd3oKYAFWQSkfWps-1">
          <mxGeometry relative="1" as="geometry">
            <mxPoint x="55" y="620" as="sourcePoint" />
            <Array as="points">
              <mxPoint x="75" y="620" />
              <mxPoint x="75" y="643" />
            </Array>
            <mxPoint x="60" y="643" as="targetPoint" />
          </mxGeometry>
        </mxCell>
        <mxCell id="tIPdcqpkB73JDoqI9Y_N-50" value="16: cancelarCompra()" style="edgeLabel;html=1;align=center;verticalAlign=middle;resizable=0;points=[];" connectable="0" vertex="1" parent="tIPdcqpkB73JDoqI9Y_N-49">
          <mxGeometry x="0.0268" y="1" relative="1" as="geometry">
            <mxPoint x="54" as="offset" />
          </mxGeometry>
        </mxCell>
        <mxCell id="nY0M5U82VFvjYw-q00rb-8" value="" style="html=1;points=[[0,0,0,0,5],[0,1,0,0,-5],[1,0,0,0,5],[1,1,0,0,-5]];perimeter=orthogonalPerimeter;outlineConnect=0;targetShapes=umlLifeline;portConstraint=eastwest;newEdgeStyle={&quot;curved&quot;:0,&quot;rounded&quot;:0};" vertex="1" parent="FR1wxd3oKYAFWQSkfWps-1">
          <mxGeometry x="45" y="690" width="10" height="61" as="geometry" />
        </mxCell>
        <mxCell id="nY0M5U82VFvjYw-q00rb-9" value="" style="html=1;points=[[0,0,0,0,5],[0,1,0,0,-5],[1,0,0,0,5],[1,1,0,0,-5]];perimeter=orthogonalPerimeter;outlineConnect=0;targetShapes=umlLifeline;portConstraint=eastwest;newEdgeStyle={&quot;curved&quot;:0,&quot;rounded&quot;:0};" vertex="1" parent="FR1wxd3oKYAFWQSkfWps-1">
          <mxGeometry x="50" y="708" width="10" height="25" as="geometry" />
        </mxCell>
        <mxCell id="nY0M5U82VFvjYw-q00rb-10" style="edgeStyle=orthogonalEdgeStyle;rounded=0;orthogonalLoop=1;jettySize=auto;html=1;curved=0;endArrow=block;endFill=1;" edge="1" parent="FR1wxd3oKYAFWQSkfWps-1">
          <mxGeometry relative="1" as="geometry">
            <mxPoint x="55" y="700" as="sourcePoint" />
            <Array as="points">
              <mxPoint x="75" y="700" />
              <mxPoint x="75" y="723" />
            </Array>
            <mxPoint x="60" y="723" as="targetPoint" />
          </mxGeometry>
        </mxCell>
        <mxCell id="nY0M5U82VFvjYw-q00rb-11" value="18: msgResumo" style="edgeLabel;html=1;align=center;verticalAlign=middle;resizable=0;points=[];" connectable="0" vertex="1" parent="nY0M5U82VFvjYw-q00rb-10">
          <mxGeometry x="0.0268" y="1" relative="1" as="geometry">
            <mxPoint x="42" as="offset" />
          </mxGeometry>
        </mxCell>
        <mxCell id="4I5Ba4hPfbXp_XHa29CI-16" style="edgeStyle=orthogonalEdgeStyle;rounded=0;orthogonalLoop=1;jettySize=auto;html=1;curved=0;endArrow=block;endFill=1;strokeWidth=1;" edge="1" parent="FR1wxd3oKYAFWQSkfWps-1" target="4I5Ba4hPfbXp_XHa29CI-15">
          <mxGeometry relative="1" as="geometry">
            <Array as="points">
              <mxPoint x="75" y="115" />
              <mxPoint x="75" y="138" />
            </Array>
            <mxPoint x="55" y="115" as="sourcePoint" />
          </mxGeometry>
        </mxCell>
        <mxCell id="4I5Ba4hPfbXp_XHa29CI-17" value="&lt;b&gt;2: msgVoo&lt;/b&gt;" style="edgeLabel;html=1;align=center;verticalAlign=middle;resizable=0;points=[];" connectable="0" vertex="1" parent="4I5Ba4hPfbXp_XHa29CI-16">
          <mxGeometry x="0.0268" y="1" relative="1" as="geometry">
            <mxPoint x="27" as="offset" />
          </mxGeometry>
        </mxCell>
        <mxCell id="4I5Ba4hPfbXp_XHa29CI-15" value="" style="html=1;points=[[0,0,0,0,5],[0,1,0,0,-5],[1,0,0,0,5],[1,1,0,0,-5]];perimeter=orthogonalPerimeter;outlineConnect=0;targetShapes=umlLifeline;portConstraint=eastwest;newEdgeStyle={&quot;curved&quot;:0,&quot;rounded&quot;:0};" vertex="1" parent="FR1wxd3oKYAFWQSkfWps-1">
          <mxGeometry x="50" y="125" width="10" height="25" as="geometry" />
        </mxCell>
        <mxCell id="FR1wxd3oKYAFWQSkfWps-4" value="&lt;b&gt;Usuário&lt;/b&gt;" style="shape=umlActor;verticalLabelPosition=bottom;verticalAlign=top;html=1;outlineConnect=0;strokeWidth=2;" vertex="1" parent="1">
          <mxGeometry x="345" y="120" width="30" height="60" as="geometry" />
        </mxCell>
        <mxCell id="FR1wxd3oKYAFWQSkfWps-5" value="" style="endArrow=none;dashed=1;html=1;rounded=0;strokeWidth=2;" edge="1" parent="1">
          <mxGeometry width="50" height="50" relative="1" as="geometry">
            <mxPoint x="359" y="900" as="sourcePoint" />
            <mxPoint x="359.23" y="207.38" as="targetPoint" />
          </mxGeometry>
        </mxCell>
        <mxCell id="FR1wxd3oKYAFWQSkfWps-8" value="" style="html=1;verticalAlign=bottom;labelBackgroundColor=none;endArrow=block;endFill=1;rounded=0;" edge="1" parent="1" target="4I5Ba4hPfbXp_XHa29CI-5">
          <mxGeometry width="160" relative="1" as="geometry">
            <mxPoint x="360" y="240" as="sourcePoint" />
            <mxPoint x="540" y="250" as="targetPoint" />
          </mxGeometry>
        </mxCell>
        <mxCell id="FR1wxd3oKYAFWQSkfWps-9" value="&lt;b&gt;1: solicitarViagem&lt;/b&gt;" style="edgeLabel;html=1;align=center;verticalAlign=middle;resizable=0;points=[];" connectable="0" vertex="1" parent="FR1wxd3oKYAFWQSkfWps-8">
          <mxGeometry x="-0.0236" relative="1" as="geometry">
            <mxPoint y="-9" as="offset" />
          </mxGeometry>
        </mxCell>
        <mxCell id="4I5Ba4hPfbXp_XHa29CI-21" value="Cancelar Voo" style="shape=umlFrame;whiteSpace=wrap;html=1;pointerEvents=0;" vertex="1" parent="1">
          <mxGeometry x="310" y="700" width="370" height="190" as="geometry" />
        </mxCell>
        <mxCell id="tIPdcqpkB73JDoqI9Y_N-32" style="edgeStyle=orthogonalEdgeStyle;rounded=0;orthogonalLoop=1;jettySize=auto;html=1;curved=0;exitX=0;exitY=0;exitDx=0;exitDy=5;exitPerimeter=0;endArrow=block;endFill=1;entryX=0;entryY=0;entryDx=0;entryDy=5;entryPerimeter=0;" edge="1" parent="1">
          <mxGeometry relative="1" as="geometry">
            <mxPoint x="360" y="690.2222222222222" as="sourcePoint" />
            <mxPoint x="535" y="690" as="targetPoint" />
          </mxGeometry>
        </mxCell>
        <mxCell id="tIPdcqpkB73JDoqI9Y_N-33" value="&lt;div&gt;13: preencherDadosPassageiro&lt;/div&gt;" style="edgeLabel;html=1;align=center;verticalAlign=middle;resizable=0;points=[];" connectable="0" vertex="1" parent="tIPdcqpkB73JDoqI9Y_N-32">
          <mxGeometry x="-0.0312" y="-2" relative="1" as="geometry">
            <mxPoint x="-1" y="-13" as="offset" />
          </mxGeometry>
        </mxCell>
        <mxCell id="tIPdcqpkB73JDoqI9Y_N-51" style="edgeStyle=orthogonalEdgeStyle;rounded=0;orthogonalLoop=1;jettySize=auto;html=1;curved=0;exitX=0;exitY=1;exitDx=0;exitDy=-5;exitPerimeter=0;endArrow=open;endFill=0;dashed=1;" edge="1" parent="1">
          <mxGeometry relative="1" as="geometry">
            <mxPoint x="357.5" y="799.29" as="targetPoint" />
            <mxPoint x="532.5" y="799.5122222222222" as="sourcePoint" />
          </mxGeometry>
        </mxCell>
        <mxCell id="tIPdcqpkB73JDoqI9Y_N-54" value="[Sim]" style="text;whiteSpace=wrap;" vertex="1" parent="1">
          <mxGeometry x="320" y="730" width="30" height="40" as="geometry" />
        </mxCell>
        <mxCell id="tIPdcqpkB73JDoqI9Y_N-56" value="[Não]" style="text;whiteSpace=wrap;" vertex="1" parent="1">
          <mxGeometry x="320" y="810" width="30" height="30" as="geometry" />
        </mxCell>
        <mxCell id="nY0M5U82VFvjYw-q00rb-2" style="edgeStyle=orthogonalEdgeStyle;rounded=0;orthogonalLoop=1;jettySize=auto;html=1;curved=0;endArrow=open;endFill=0;dashed=1;exitX=0.5;exitY=0.82;exitDx=0;exitDy=0;exitPerimeter=0;" edge="1" parent="1">
          <mxGeometry relative="1" as="geometry">
            <mxPoint x="360" y="640" as="targetPoint" />
            <mxPoint x="540" y="640.02" as="sourcePoint" />
          </mxGeometry>
        </mxCell>
        <mxCell id="nY0M5U82VFvjYw-q00rb-3" value="12:exibirFormularioPassageiro" style="edgeLabel;html=1;align=center;verticalAlign=middle;resizable=0;points=[];" connectable="0" vertex="1" parent="nY0M5U82VFvjYw-q00rb-2">
          <mxGeometry x="-0.0439" y="-1" relative="1" as="geometry">
            <mxPoint x="-4" y="-9" as="offset" />
          </mxGeometry>
        </mxCell>
        <mxCell id="nY0M5U82VFvjYw-q00rb-4" value="" style="endArrow=none;dashed=1;html=1;rounded=0;entryX=1;entryY=0.523;entryDx=0;entryDy=0;entryPerimeter=0;exitX=0.002;exitY=0.527;exitDx=0;exitDy=0;exitPerimeter=0;" edge="1" parent="1">
          <mxGeometry width="50" height="50" relative="1" as="geometry">
            <mxPoint x="310.74" y="811.4000000000001" as="sourcePoint" />
            <mxPoint x="680" y="810.6000000000001" as="targetPoint" />
          </mxGeometry>
        </mxCell>
        <mxCell id="tIPdcqpkB73JDoqI9Y_N-30" style="edgeStyle=orthogonalEdgeStyle;rounded=0;orthogonalLoop=1;jettySize=auto;html=1;curved=0;exitX=0;exitY=0;exitDx=0;exitDy=5;exitPerimeter=0;endArrow=block;endFill=1;entryX=0;entryY=0;entryDx=0;entryDy=5;entryPerimeter=0;" edge="1" parent="1">
          <mxGeometry relative="1" as="geometry">
            <mxPoint x="360" y="610.2222222222222" as="sourcePoint" />
            <mxPoint x="535" y="610" as="targetPoint" />
          </mxGeometry>
        </mxCell>
        <mxCell id="tIPdcqpkB73JDoqI9Y_N-31" value="&lt;div&gt;10: escolherDespachoBagagem&lt;/div&gt;" style="edgeLabel;html=1;align=center;verticalAlign=middle;resizable=0;points=[];" connectable="0" vertex="1" parent="tIPdcqpkB73JDoqI9Y_N-30">
          <mxGeometry x="-0.0312" y="-2" relative="1" as="geometry">
            <mxPoint y="-13" as="offset" />
          </mxGeometry>
        </mxCell>
        <mxCell id="4I5Ba4hPfbXp_XHa29CI-31" style="edgeStyle=orthogonalEdgeStyle;rounded=0;orthogonalLoop=1;jettySize=auto;html=1;curved=0;exitX=0;exitY=1;exitDx=0;exitDy=-5;exitPerimeter=0;endArrow=open;endFill=0;dashed=1;" edge="1" parent="1">
          <mxGeometry relative="1" as="geometry">
            <mxPoint x="360" y="560" as="targetPoint" />
            <mxPoint x="535" y="560" as="sourcePoint" />
          </mxGeometry>
        </mxCell>
        <mxCell id="nY0M5U82VFvjYw-q00rb-1" value="9:opcoesDespachoBagagem" style="edgeLabel;html=1;align=center;verticalAlign=middle;resizable=0;points=[];" connectable="0" vertex="1" parent="4I5Ba4hPfbXp_XHa29CI-31">
          <mxGeometry x="-0.0439" y="-1" relative="1" as="geometry">
            <mxPoint y="-9" as="offset" />
          </mxGeometry>
        </mxCell>
        <mxCell id="4fh4KBlPgl9VrrpC9dsg-11" style="edgeStyle=orthogonalEdgeStyle;rounded=0;orthogonalLoop=1;jettySize=auto;html=1;curved=0;exitX=0;exitY=0;exitDx=0;exitDy=5;exitPerimeter=0;endArrow=block;endFill=1;entryX=0;entryY=0;entryDx=0;entryDy=5;entryPerimeter=0;" edge="1" parent="1">
          <mxGeometry relative="1" as="geometry">
            <mxPoint x="360" y="514.7222222222222" as="sourcePoint" />
            <mxPoint x="535" y="514.5" as="targetPoint" />
          </mxGeometry>
        </mxCell>
        <mxCell id="4fh4KBlPgl9VrrpC9dsg-12" value="7: escolherAssento" style="edgeLabel;html=1;align=center;verticalAlign=middle;resizable=0;points=[];" connectable="0" vertex="1" parent="4fh4KBlPgl9VrrpC9dsg-11">
          <mxGeometry x="-0.0312" y="-2" relative="1" as="geometry">
            <mxPoint y="-11" as="offset" />
          </mxGeometry>
        </mxCell>
        <mxCell id="4fh4KBlPgl9VrrpC9dsg-13" style="edgeStyle=orthogonalEdgeStyle;rounded=0;orthogonalLoop=1;jettySize=auto;html=1;curved=0;exitX=0;exitY=1;exitDx=0;exitDy=-5;exitPerimeter=0;endArrow=open;endFill=0;dashed=1;" edge="1" parent="1">
          <mxGeometry relative="1" as="geometry">
            <mxPoint x="360" y="480" as="targetPoint" />
            <Array as="points">
              <mxPoint x="360" y="480" />
            </Array>
            <mxPoint x="535" y="480" as="sourcePoint" />
          </mxGeometry>
        </mxCell>
        <mxCell id="4fh4KBlPgl9VrrpC9dsg-14" value="6: assentosDisponiveis" style="edgeLabel;html=1;align=center;verticalAlign=middle;resizable=0;points=[];" connectable="0" vertex="1" parent="4fh4KBlPgl9VrrpC9dsg-13">
          <mxGeometry x="0.0586" relative="1" as="geometry">
            <mxPoint x="6" y="-9" as="offset" />
          </mxGeometry>
        </mxCell>
        <mxCell id="4fh4KBlPgl9VrrpC9dsg-17" value="" style="html=1;verticalAlign=bottom;labelBackgroundColor=none;endArrow=block;endFill=1;rounded=0;entryX=0;entryY=0;entryDx=0;entryDy=5;entryPerimeter=0;" edge="1" parent="1">
          <mxGeometry width="160" relative="1" as="geometry">
            <mxPoint x="360" y="420" as="sourcePoint" />
            <mxPoint x="535" y="420" as="targetPoint" />
          </mxGeometry>
        </mxCell>
        <mxCell id="4fh4KBlPgl9VrrpC9dsg-18" value="4: escolherClasse" style="edgeLabel;html=1;align=center;verticalAlign=middle;resizable=0;points=[];" connectable="0" vertex="1" parent="4fh4KBlPgl9VrrpC9dsg-17">
          <mxGeometry x="-0.0236" relative="1" as="geometry">
            <mxPoint y="-9" as="offset" />
          </mxGeometry>
        </mxCell>
        <mxCell id="4fh4KBlPgl9VrrpC9dsg-19" value="" style="html=1;verticalAlign=bottom;labelBackgroundColor=none;endArrow=open;endFill=0;rounded=0;dashed=1;exitX=0;exitY=0;exitDx=0;exitDy=5;exitPerimeter=0;edgeStyle=orthogonalEdgeStyle;" edge="1" parent="1" source="4I5Ba4hPfbXp_XHa29CI-8">
          <mxGeometry width="160" relative="1" as="geometry">
            <mxPoint x="535" y="370" as="sourcePoint" />
            <mxPoint x="360" y="364" as="targetPoint" />
          </mxGeometry>
        </mxCell>
        <mxCell id="4fh4KBlPgl9VrrpC9dsg-20" value="&lt;b&gt;3: classesDisponiveis&lt;/b&gt;" style="edgeLabel;html=1;align=center;verticalAlign=middle;resizable=0;points=[];" connectable="0" vertex="1" parent="4fh4KBlPgl9VrrpC9dsg-19">
          <mxGeometry x="-0.0236" relative="1" as="geometry">
            <mxPoint y="-9" as="offset" />
          </mxGeometry>
        </mxCell>
        <mxCell id="4fh4KBlPgl9VrrpC9dsg-21" value="" style="html=1;verticalAlign=bottom;labelBackgroundColor=none;endArrow=open;endFill=0;rounded=0;dashed=1;edgeStyle=orthogonalEdgeStyle;" edge="1" parent="1">
          <mxGeometry width="160" relative="1" as="geometry">
            <mxPoint x="555" y="290" as="sourcePoint" />
            <mxPoint x="360" y="290" as="targetPoint" />
            <Array as="points">
              <mxPoint x="458" y="290" />
              <mxPoint x="458" y="291" />
            </Array>
          </mxGeometry>
        </mxCell>
        <mxCell id="4fh4KBlPgl9VrrpC9dsg-22" value="&lt;b&gt;&lt;br&gt;&lt;/b&gt;&lt;div&gt;&lt;b&gt;2.1: exibirVoos(voosDisponiveis)&lt;/b&gt;&lt;/div&gt;" style="edgeLabel;html=1;align=center;verticalAlign=middle;resizable=0;points=[];" connectable="0" vertex="1" parent="4fh4KBlPgl9VrrpC9dsg-21">
          <mxGeometry x="-0.0236" relative="1" as="geometry">
            <mxPoint y="-20" as="offset" />
          </mxGeometry>
        </mxCell>
        <mxCell id="4fh4KBlPgl9VrrpC9dsg-24" value="" style="html=1;verticalAlign=bottom;labelBackgroundColor=none;endArrow=open;endFill=0;rounded=0;dashed=1;exitX=0;exitY=1;exitDx=0;exitDy=-5;exitPerimeter=0;edgeStyle=orthogonalEdgeStyle;" edge="1" parent="1">
          <mxGeometry width="160" relative="1" as="geometry">
            <mxPoint x="535" y="390" as="sourcePoint" />
            <mxPoint x="360" y="390" as="targetPoint" />
          </mxGeometry>
        </mxCell>
        <mxCell id="4fh4KBlPgl9VrrpC9dsg-25" value="3.1: exibirClasses(classes)" style="edgeLabel;html=1;align=center;verticalAlign=middle;resizable=0;points=[];" connectable="0" vertex="1" parent="4fh4KBlPgl9VrrpC9dsg-24">
          <mxGeometry x="-0.0236" relative="1" as="geometry">
            <mxPoint y="-9" as="offset" />
          </mxGeometry>
        </mxCell>
        <mxCell id="4fh4KBlPgl9VrrpC9dsg-27" style="edgeStyle=orthogonalEdgeStyle;rounded=0;orthogonalLoop=1;jettySize=auto;html=1;curved=0;exitX=0;exitY=1;exitDx=0;exitDy=-5;exitPerimeter=0;endArrow=open;endFill=0;dashed=1;" edge="1" parent="1">
          <mxGeometry relative="1" as="geometry">
            <mxPoint x="360" y="500" as="targetPoint" />
            <Array as="points">
              <mxPoint x="360" y="500" />
            </Array>
            <mxPoint x="535" y="500" as="sourcePoint" />
          </mxGeometry>
        </mxCell>
        <mxCell id="4fh4KBlPgl9VrrpC9dsg-28" value="6.1: exibirAssentos(assentos)" style="edgeLabel;html=1;align=center;verticalAlign=middle;resizable=0;points=[];" connectable="0" vertex="1" parent="4fh4KBlPgl9VrrpC9dsg-27">
          <mxGeometry x="0.0586" relative="1" as="geometry">
            <mxPoint x="6" y="-9" as="offset" />
          </mxGeometry>
        </mxCell>
        <mxCell id="4fh4KBlPgl9VrrpC9dsg-31" style="edgeStyle=orthogonalEdgeStyle;rounded=0;orthogonalLoop=1;jettySize=auto;html=1;curved=0;exitX=0;exitY=1;exitDx=0;exitDy=-5;exitPerimeter=0;endArrow=open;endFill=0;dashed=1;" edge="1" parent="1">
          <mxGeometry relative="1" as="geometry">
            <mxPoint x="360" y="580" as="targetPoint" />
            <mxPoint x="535" y="580" as="sourcePoint" />
            <Array as="points">
              <mxPoint x="420" y="580" />
              <mxPoint x="420" y="580" />
            </Array>
          </mxGeometry>
        </mxCell>
        <mxCell id="4fh4KBlPgl9VrrpC9dsg-32" value="9.1: exibirOpcoesDespacho(opcoes)" style="edgeLabel;html=1;align=center;verticalAlign=middle;resizable=0;points=[];" connectable="0" vertex="1" parent="4fh4KBlPgl9VrrpC9dsg-31">
          <mxGeometry x="-0.0439" y="-1" relative="1" as="geometry">
            <mxPoint y="-9" as="offset" />
          </mxGeometry>
        </mxCell>
        <mxCell id="4fh4KBlPgl9VrrpC9dsg-34" style="edgeStyle=orthogonalEdgeStyle;rounded=0;orthogonalLoop=1;jettySize=auto;html=1;curved=0;endArrow=open;endFill=0;dashed=1;exitX=0.5;exitY=0.82;exitDx=0;exitDy=0;exitPerimeter=0;" edge="1" parent="1">
          <mxGeometry relative="1" as="geometry">
            <mxPoint x="360" y="660" as="targetPoint" />
            <mxPoint x="540" y="660.02" as="sourcePoint" />
          </mxGeometry>
        </mxCell>
        <mxCell id="4fh4KBlPgl9VrrpC9dsg-35" value="12.1: mostrarFormulario(form)" style="edgeLabel;html=1;align=center;verticalAlign=middle;resizable=0;points=[];" connectable="0" vertex="1" parent="4fh4KBlPgl9VrrpC9dsg-34">
          <mxGeometry x="-0.0439" y="-1" relative="1" as="geometry">
            <mxPoint x="-4" y="-9" as="offset" />
          </mxGeometry>
        </mxCell>
        <mxCell id="918zsAKOO74Df7-XZnjO-3" value="" style="html=1;verticalAlign=bottom;labelBackgroundColor=none;endArrow=block;endFill=1;rounded=0;" edge="1" parent="1">
          <mxGeometry width="160" relative="1" as="geometry">
            <mxPoint x="360" y="320" as="sourcePoint" />
            <mxPoint x="555" y="320" as="targetPoint" />
          </mxGeometry>
        </mxCell>
        <mxCell id="918zsAKOO74Df7-XZnjO-4" value="&lt;b&gt;1: selecionarVoo&lt;/b&gt;" style="edgeLabel;html=1;align=center;verticalAlign=middle;resizable=0;points=[];" connectable="0" vertex="1" parent="918zsAKOO74Df7-XZnjO-3">
          <mxGeometry x="-0.0236" relative="1" as="geometry">
            <mxPoint y="-9" as="offset" />
          </mxGeometry>
        </mxCell>
      </root>
    </mxGraphModel>
  </diagram>
</mxfile>
